<svg width="62" height="55" viewBox="0 0 62 55" fill="none" xmlns="http://www.w3.org/2000/svg">
<path d="M39.0153 53.0221C47.3555 42.6079 71.0739 19.0121 56.2108 4.21055C47.643 -4.32136 38.8993 6.08466 34.5155 13.0127C32.5225 16.1623 30.9152 19.3832 29.2524 22.6949C28.6816 23.8316 28.0152 27.1925 27.4444 26.0558C26.5743 24.3228 26.9959 20.8954 26.3597 18.854C25.4797 16.0302 24.1277 13.5302 22.2215 11.2522C18.792 7.15398 10.587 -0.136556 4.66445 4.45064C-2.96861 10.3626 3.09587 27.2392 6.9143 34.0176C10.1474 39.757 14.4098 45.8029 19.0878 50.4615C19.6441 51.0156 23.4092 55.5144 21.9804 52.2619C20.8069 49.5905 19.4895 46.3444 19.4895 43.3799C19.4895 40.4812 22.0469 48.5895 23.4268 51.1416C26.1521 56.1819 18.1966 53.0221 15.1504 53.0221" stroke="#3C2EFF" stroke-width="2" stroke-linecap="round"/>
</svg>
