<svg width="28" height="28" viewBox="0 0 28 28" fill="none" xmlns="http://www.w3.org/2000/svg">
<g clip-path="url(#clip0_8039_191)">
<path d="M19.6501 7.05208C19.6501 6.69017 19.7939 6.34309 20.0498 6.08718C20.3057 5.83127 20.6528 5.6875 21.0147 5.6875C21.3766 5.6875 21.7237 5.83127 21.9796 6.08718C22.2355 6.34309 22.3793 6.69017 22.3793 7.05208C22.3793 7.41399 22.2355 7.76108 21.9796 8.01699C21.7237 8.2729 21.3766 8.41667 21.0147 8.41667C20.6528 8.41667 20.3057 8.2729 20.0498 8.01699C19.7939 7.76108 19.6501 7.41399 19.6501 7.05208Z" fill="white"/>
<path fill-rule="evenodd" clip-rule="evenodd" d="M14.1917 7.39355C12.4726 7.39355 10.8239 8.07645 9.60835 9.29202C8.39278 10.5076 7.70988 12.1563 7.70988 13.8753C7.70988 15.5944 8.39278 17.2431 9.60835 18.4586C10.8239 19.6742 12.4726 20.3571 14.1917 20.3571C15.9107 20.3571 17.5594 19.6742 18.775 18.4586C19.9905 17.2431 20.6734 15.5944 20.6734 13.8753C20.6734 12.1563 19.9905 10.5076 18.775 9.29202C17.5594 8.07645 15.9107 7.39355 14.1917 7.39355ZM9.75676 13.8753C9.75676 12.6991 10.224 11.5711 11.0557 10.7394C11.8874 9.90768 13.0154 9.44043 14.1917 9.44043C15.3679 9.44043 16.4959 9.90768 17.3276 10.7394C18.1593 11.5711 18.6266 12.6991 18.6266 13.8753C18.6266 15.0515 18.1593 16.1796 17.3276 17.0113C16.4959 17.843 15.3679 18.3102 14.1917 18.3102C13.0154 18.3102 11.8874 17.843 11.0557 17.0113C10.224 16.1796 9.75676 15.0515 9.75676 13.8753Z" fill="white"/>
<path fill-rule="evenodd" clip-rule="evenodd" d="M21.3666 1.36639C16.5979 0.837507 11.7854 0.837507 7.01666 1.36639C4.27112 1.67342 2.05367 3.83628 1.73163 6.59547C1.16684 11.4324 1.16684 16.3186 1.73163 21.1556C2.05367 23.9148 4.26976 26.0776 7.01666 26.3847C11.7854 26.9124 16.5979 26.9124 21.3666 26.3847C24.1122 26.0776 26.3296 23.9148 26.6516 21.1556C27.2164 16.3186 27.2164 11.4324 26.6516 6.59547C26.3296 3.83628 24.1135 1.67342 21.3666 1.36639ZM7.24318 3.39962C11.8613 2.8875 16.5219 2.8875 21.1401 3.39962C22.955 3.6043 24.4083 5.03575 24.6198 6.83427C25.1672 11.5125 25.1672 16.2386 24.6198 20.9168C24.5104 21.797 24.1074 22.6146 23.4761 23.2376C22.8447 23.8606 22.0217 24.2525 21.1401 24.3501C16.5219 24.8622 11.8613 24.8622 7.24318 24.3501C6.36158 24.2525 5.53861 23.8606 4.90723 23.2376C4.27584 22.6146 3.8729 21.797 3.76349 20.9168C3.2161 16.2386 3.2161 11.5125 3.76349 6.83427C3.8729 5.95406 4.27584 5.13643 4.90723 4.51346C5.53861 3.89049 6.36158 3.49719 7.24318 3.39962Z" fill="white"/>
</g>
<defs>
<clipPath id="clip0_8039_191">
<rect width="27.2917" height="27.2917" fill="white" transform="translate(0.54583 0.229492)"/>
</clipPath>
</defs>
</svg>
