<svg width="92" height="101" viewBox="0 0 92 101" fill="none" xmlns="http://www.w3.org/2000/svg">
<g clip-path="url(#clip0_8039_235)">
<path d="M-0.853772 52.3805C10.8609 48.374 24.8376 46.757 36.9154 50.3304C40.1997 51.302 56.2103 55.9665 53.407 61.684C52.0643 64.4226 49.2337 62.4311 48.0352 60.7803C45.6755 57.5308 44.0957 54.7448 43.3251 50.6857C42.1352 44.4201 41.9833 35.1748 49.3617 32.8847C52.546 31.8963 56.1372 35.1073 57.4264 37.6077C58.6903 40.0592 59.0839 42.603 59.628 45.2711C60.0704 47.4397 59.8229 47.1203 61.62 45.8152C66.1309 42.5398 75.1074 43.0864 73.0045 50.6282C71.8249 54.8597 68.8975 57.6004 65.9612 60.5828C64.8582 61.7031 63.0249 63.6918 61.5515 64.2838C59.9475 64.9285 60.2871 62.8129 61.1285 62.0099C63.2207 60.0138 64.9479 59.5574 67.5649 60.8405C69.9318 62.001 72.1697 65.3811 70.999 68.147C70.3496 69.6815 70.9067 69.5014 71.9675 68.6218C72.7907 67.9396 74.7366 65.4248 74.2659 66.3848C74.1001 66.723 72.7087 69.5134 72.2836 69.5458C70.7702 69.6607 69.1686 68.8914 67.7034 68.6936" stroke="white" stroke-linecap="round"/>
</g>
<defs>
<clipPath id="clip0_8039_235">
<rect width="75" height="75" fill="white" transform="translate(24.0176) rotate(26.1189)"/>
</clipPath>
</defs>
</svg>
